<?xml version="1.0" standalone="no"?>
<!DOCTYPE svg PUBLIC "-//W3C//DTD SVG 20010904//EN"
 "http://www.w3.org/TR/2001/REC-SVG-20010904/DTD/svg10.dtd">
<svg version="1.0" xmlns="http://www.w3.org/2000/svg"
 width="128.000000pt" height="128.000000pt" viewBox="0 0 128.000000 128.000000"
 preserveAspectRatio="xMidYMid meet">

<g transform="translate(0.000000,128.000000) scale(0.100000,-0.100000)"
fill="#000000" stroke="none">
<path d="M0 640 l0 -640 640 0 640 0 0 640 0 640 -640 0 -640 0 0 -640z m1053
373 l87 -89 -2 -174 -3 -173 -63 -49 c-34 -27 -68 -46 -74 -42 -7 4 -8 3 -4
-4 5 -8 0 -12 -13 -12 -12 0 -21 -5 -21 -11 0 -5 6 -7 13 -4 6 4 -4 -6 -23
-21 -19 -16 -43 -30 -52 -30 -20 -1 -61 -34 -54 -42 9 -9 -25 -34 -50 -37 -14
-1 -35 -11 -47 -22 -12 -11 -46 -36 -75 -57 l-54 -37 -43 35 c-24 20 -51 36
-61 36 -38 0 -54 30 -54 99 -1 64 -2 67 -39 96 -21 17 -93 74 -160 128 l-121
98 0 112 0 112 92 92 93 93 104 0 105 0 53 -52 53 -52 53 51 52 52 95 3 c52 2
102 0 110 -4 8 -4 54 -47 103 -95z"/>
<path d="M668 826 l-113 -125 -3 110 -3 109 -124 0 -125 0 0 -69 0 -69 160
-132 c158 -129 160 -131 160 -170 0 -22 -4 -40 -8 -40 -4 0 -9 -16 -10 -35 -2
-19 1 -35 5 -35 4 0 74 53 155 118 81 64 163 130 183 145 l35 28 0 97 0 98
-48 47 c-44 44 -51 47 -100 47 l-51 0 -113 -124z"/>
</g>
</svg>
